HIERARCHY
ROOT pelvis
{
  OFFSET 0 100 0
  CHANNELS 6 Xposition Yposition Zposition Zrotation Xrotation Yrotation
  JOINT pelvis_right_femur
  {
    OFFSET -10.78128 -3.44521 -0.5502486
    CHANNELS 3 Zrotation Xrotation Yrotation
    JOINT right_femur_tibia
    {
      OFFSET -0.8047443 -44.0398 -0.1307829
      CHANNELS 3 Zrotation Xrotation Yrotation
      JOINT right_tibia_foot
      {
        OFFSET 3.006224 -47.83518 -5
        CHANNELS 3 Zrotation Xrotation Yrotation
        End Site
        {
          OFFSET 0 -5 15
        }
      }
    }
  }
  JOINT pelvis_left_femur
  {
    OFFSET 10.78128 -3.44521 -0.5502486
    CHANNELS 3 Zrotation Xrotation Yrotation
    JOINT left_femur_tibia
    {
      OFFSET 0.8047443 -44.0398 -0.1307829
      CHANNELS 3 Zrotation Xrotation Yrotation
      JOINT left_tibia_foot
      {
        OFFSET -4.370144 -48.10324 -4.275266
        CHANNELS 3 Zrotation Xrotation Yrotation
        End Site
        {
          OFFSET 0 -5 15
        }
      }
    }
  }
  JOINT pelvis_spine1
  {
    OFFSET 0 6.468898 -3.129235
    CHANNELS 3 Zrotation Xrotation Yrotation
    JOINT spine1
    {
      OFFSET 0 23.15396 4.99043
      CHANNELS 3 Zrotation Xrotation Yrotation
      JOINT spine2
      {
        OFFSET 0 20.79997 -5.064912
        CHANNELS 3 Zrotation Xrotation Yrotation
        JOINT neck
        {
          OFFSET 0 14.38658 9.616178
          CHANNELS 3 Zrotation Xrotation Yrotation
          End Site
          {
            OFFSET 0 20 0
          }
        }
      }
      JOINT right_manubrium
      {
        OFFSET -5.722621 16.35077 3.967754
        CHANNELS 3 Zrotation Xrotation Yrotation
        JOINT right_clavicle
        {
          OFFSET -13.16364 1.694482 -4.693211
          CHANNELS 3 Zrotation Xrotation Yrotation
          JOINT right_humerus
          {
            OFFSET -28.5034 -0.3100689 -2.792744
            CHANNELS 3 Zrotation Xrotation Yrotation
            JOINT right_radius
            {
              OFFSET -25.15693 0.02248979 -1.271978
              CHANNELS 3 Zrotation Xrotation Yrotation
              End Site
              {
                OFFSET -15 0 0
              }
            }
          }
        }
      }
      JOINT left_manubrium
      {
        OFFSET 5.722621 16.35077 3.967754
        CHANNELS 3 Zrotation Xrotation Yrotation
        JOINT left_clavicle
        {
          OFFSET 13.16364 1.694482 -4.693211
          CHANNELS 3 Zrotation Xrotation Yrotation
          JOINT left_humerus
          {
            OFFSET 29.39168 -1.063119 -2.237045
            CHANNELS 3 Zrotation Xrotation Yrotation
            JOINT left_radius
            {
              OFFSET 24.59957 -0.9528479 0.9047498
              CHANNELS 3 Zrotation Xrotation Yrotation
              End Site
              {
                OFFSET 15 -0 -0
              }
            }
          }
        }
      }
    }
  }
}
MOTION
Frames: 11
Frame Time: 0.0416666666667
4.324898 107.3824 3041.061 0.101035 -7.356372 -2.989046 0.2886824 -18.13696 -0.8642047 -0 34.5781 -0 -6.011735 3.411415 -4.017762 -4.93385 8.559598 -9.609468 -0 11.74932 -0 0.132005 -16.46381 16.17202 -0.8612165 0.6126521 6.421057 -4.094451 7.696183 -3.453782 -0.8114741 19.52587 12.28483 12.28163 -23.43841 6.719314 0.8596649 -23.9148 8.337527 91.03626 43.60076 -13.76767 -0 0 21.7158 -21.03245 -2.515756 5.120023 11.19329 -23.22908 -1.617151 -92.24679 6.39783 25.15842 0 0 -1.417509 15.3816 5.109822 -9.465401
4.308451 106.3879 3046.417 0.5165438 -6.621792 -2.479498 -0.1633354 -21.75706 -2.39794 -0 24.19828 -0 -5.837793 2.070698 -3.946372 -5.181865 11.33976 -9.425963 -0 10.74364 -0 -0.2522841 -18.22705 15.13027 -1.059815 0.7558417 5.969935 -4.011609 7.948262 -3.536878 -0.5051184 19.77071 11.72241 12.04625 -22.81139 6.406938 1.154779 -23.25914 8.457986 90.74147 43.30604 -13.4579 -0 0 21.31115 -21.29865 -1.62378 5.029587 11.03167 -23.04037 -2.111245 -91.62481 6.098743 23.49217 0 0 -1.67107 15.38599 5.952459 -10.13186
4.182145 105.0085 3052.074 0.9381809 -5.787032 -2.044411 -0.3458531 -24.47376 -3.740271 -0 15.35839 -0 -5.691995 1.768908 -3.810876 -5.479636 13.65268 -8.978367 -0 11.12549 -0 -0.5671626 -19.61313 14.10112 -1.232433 0.8705428 5.601621 -3.897993 8.242518 -3.666038 -0.2831319 19.97248 11.18039 11.80636 -22.1874 6.016782 1.372697 -22.70618 8.586241 90.53758 42.83429 -13.34685 -0 0 20.91494 -21.51405 -0.8580876 4.92308 10.86931 -22.99763 -2.694772 -90.98794 5.813006 21.99809 0 0 -2.342262 15.36483 6.587676 -10.63668
3.923981 103.5179 3058.128 1.197115 -5.015161 -1.649307 -0.0385511 -26.17425 -4.543166 -0 8.978866 -0 -5.750619 2.286826 -3.741865 -5.670894 15.55325 -8.356843 -0 13.32216 -0 -0.8884539 -20.24127 13.1922 -1.36323 0.9411856 5.338197 -3.751752 8.578607 -3.839734 -0.1531714 20.12396 10.68102 11.56273 -21.61352 5.580017 1.502163 -22.28226 8.721581 90.43388 42.16728 -13.44879 -0 0 20.54664 -21.65984 -0.2426968 4.802357 10.70654 -23.1071 -3.326996 -90.39644 5.567997 20.77409 0 0 -3.327104 15.32039 7.003424 -10.95575
3.513755 102.2177 3064.626 1.168125 -4.488234 -1.302318 0.8893595 -26.60351 -4.54508 -0 5.636798 -0 -6.099083 3.211162 -3.839595 -5.619502 16.94303 -7.682076 -0 17.75881 -0 -1.324605 -19.72288 12.50556 -1.437595 0.9618762 5.199956 -3.572463 8.9574 -4.049598 -0.1183556 20.22035 10.24232 11.32073 -21.12803 5.121026 1.53586 -22.0152 8.865567 90.42899 41.29714 -13.7499 -0 0 20.23697 -21.72195 0.2009919 4.664232 10.52638 -23.36272 -3.978853 -89.91806 5.374502 19.9355 0 0 -4.454672 15.24324 7.191072 -11.06101
2.948446 101.3996 3071.523 0.7976186 -4.38595 -1.075619 2.396569 -25.46224 -3.672036 -0 5.483104 -0 -6.703892 3.988249 -4.144741 -5.239089 17.5037 -7.08865 -0 24.69368 -0 -1.958843 -17.7967 12.15126 -1.442649 0.9340997 5.207645 -3.36074 9.381744 -4.285915 -0.180213 20.25349 9.878075 11.09126 -20.76172 4.653414 1.468556 -21.93877 9.020337 90.51979 40.23005 -14.22363 -0 0 20.03239 -21.68497 0.452152 4.494139 10.30183 -23.75571 -4.634583 -89.61918 5.225086 19.6075 0 0 -5.531081 15.11295 7.134527 -10.9204
2.258849 101.2782 3078.653 0.1528952 -4.812478 -1.097108 4.175409 -22.59855 -2.152299 -0 7.941231 -0 -7.416375 4.013662 -4.594278 -4.549788 16.69771 -6.697921 -0 33.87233 -0 -2.798468 -14.57592 12.22997 -1.370059 0.861867 5.381933 -3.115215 9.856073 -4.542051 -0.3399124 20.21051 9.594035 10.88514 -20.5303 4.17762 1.300314 -22.09025 9.18941 90.69728 38.98638 -14.83599 -0 0 19.99398 -21.52727 0.5016254 4.2683 10.00076 -24.27873 -5.292038 -89.55303 5.095046 19.90809 0 0 -6.388153 14.9032 6.812008 -10.50262
1.509704 101.9044 3085.736 -0.5481018 -5.676373 -1.481206 5.702937 -18.23601 -0.4917646 -0 11.51288 -0 -8.033806 2.835048 -4.992842 -3.733849 13.95285 -6.550931 -0 44.15661 -0 -3.733066 -10.77033 12.75856 -1.220953 0.7463545 5.737062 -2.829711 10.38204 -4.815382 -0.5960583 20.07851 9.38383 10.70458 -20.42148 3.684385 1.045058 -22.49849 9.37963 90.93318 37.60321 -15.54096 -0 0 20.18499 -21.22229 0.3737284 3.966429 9.591164 -24.92138 -5.95876 -89.74542 4.949061 20.91723 0 0 -6.926915 14.59394 6.214599 -9.789057
0.7720692 103.1161 3092.485 -1.000334 -6.638989 -2.219258 6.5089 -13.00455 0.7856727 -0 14.24025 -0 -8.396992 0.4248686 -5.087703 -3.073993 9.062729 -6.547334 -0 53.53897 -0 -4.540172 -7.534921 13.59661 -1.011308 0.5835512 6.267527 -2.495314 10.94895 -5.102105 -0.9379259 19.85539 9.228195 10.53727 -20.38592 3.166767 0.7405967 -23.16285 9.601312 91.1661 36.14386 -16.26724 -0 0 20.64597 -20.75131 0.1468817 3.593599 9.050734 -25.65506 -6.640699 -90.18166 4.755992 22.6319 0 0 -7.138614 14.18738 5.378842 -8.793286
0.08789213 104.5857 3098.748 -0.9936837 -7.290698 -3.150984 6.465547 -7.595306 1.464801 -0 14.86838 -0 -8.441052 -2.710337 -4.763974 -2.704393 2.501443 -6.493648 -0 59.80435 -0 -5.018959 -5.779406 14.52747 -0.7735254 0.3689591 6.933126 -2.112457 11.52043 -5.384993 -1.337245 19.56189 9.10345 10.36134 -20.34817 2.639128 0.4489892 -24.03373 9.861935 91.30258 34.71399 -16.90418 -0 0 21.36775 -20.12965 -0.05479674 3.202277 8.38451 -26.41223 -7.321832 -90.8049 4.509166 24.92545 0 0 -7.082002 13.71696 4.41197 -7.579765
-0.5349056 105.9292 3104.552 -0.5873755 -7.45396 -4.08168 5.837608 -2.350215 1.72933 -0 13.58921 -0 -8.160784 -5.820216 -4.146436 -2.408651 -4.784578 -6.238604 -0 61.34649 -0 -5.19242 -5.524915 15.47491 -0.5497591 0.1095599 7.65566 -1.710603 12.0237 -5.619656 -1.747869 19.24467 9.002724 10.16561 -20.24657 2.152775 0.235539 -25.01344 10.15182 91.24555 33.47219 -17.304 -0 0 22.28079 -19.43467 -0.1240444 2.898424 7.645872 -27.07654 -7.941938 -91.53384 4.241011 27.54917 0 0 -6.820987 13.23835 3.473444 -6.26464
